<svg width="141" height="40" fill="none" xmlns="http://www.w3.org/2000/svg"><path fill-rule="evenodd" clip-rule="evenodd" d="M22.166 29.727h-6.1c-9.516 0-2.603-20.21 5.409-20.21h9.638c1.545 0 4.27.284 5.612-3.539L38.799.041H25.582c-7.157 0-12.729 2.521-16.755 6.75C1.873 14.03-.485 25.335 1.182 30.744c1.586 5.002 5.897 8.296 12.647 8.377l5.246.041h6.466l1.586-4.758c1.18-3.375-1.464-4.677-4.961-4.677zm74.257-8.377l1.993-6.466H77.147c-3.538 0-5.124.976-5.734 3.01l-1.992 6.465h21.268c3.538 0 5.124-.976 5.734-3.009zM66.25 32.737l-1.993 6.466h21.269c3.497 0 5.124-.976 5.734-3.01l1.992-6.466H71.983c-3.498 0-5.084.976-5.734 3.01zm35.136-26.19l1.993-6.466h-21.27c-3.537 0-5.123.976-5.733 3.01l-1.993 6.466h21.269c3.497 0 5.083-.976 5.734-3.01zM69.258 7.85C68.363 1.83 65.151.08 57.343.08H43.109l-8.296 24.28h5.246c3.132 0 4.718.041 6.385-4.432L49.9 9.517h5.286c4.514 0 3.498 5.652 1.22 11.142-2.033 4.839-5.571 9.11-9.841 9.11H37.74c-3.538 0-5.164.975-5.815 3.008l-2.196 6.466h6.466l6.344-.04c5.612-.041 10.207-.448 15.575-5.287C63.81 28.751 70.397 15.494 69.258 7.85zM140.75.04h-12.322l-11.59 12.322c-1.342 1.423-2.725 2.846-4.067 4.514h-.122L118.424.04H108.38L94.837 39.203h10.045l4.31-12.322 4.473-3.782 3.539 11.142c1.098 3.457 2.237 4.962 4.677 4.962h7.686l-7.89-21.879L140.75.041z" fill="#1AB248"/></svg>