<svg width="56" height="8" fill="none" xmlns="http://www.w3.org/2000/svg"><g clip-path="url(#clip0_2002_806)" fill="#fff"><path d="M9.94 0H8.603v6.769H9.94V0zM7.071.379H5.736v6.768h1.335V.38zM4.203.802H2.868v6.77h1.335V.802zm-2.868.428H0V8h1.335V1.23zm43.859 2.376l-2.15-2.39h-1.256V6.75H43.1V3.22l1.962 2.092h.243l1.928-2.092v3.53h1.312V1.217H47.29l-2.095 2.39zm9.601-2.389l-3.252 3.596V1.217h-1.311v5.532h1.202l3.251-3.596V6.75h1.312V1.217h-1.202zM34.722 3.241c0 .881.482 1.575 1.221 1.866l-1.386 1.642h1.606l1.26-1.494h1.366V6.75H40.1V1.217h-3.34c-1.245 0-2.039.852-2.039 2.024zm4.067-.806v1.636h-1.785c-.596 0-.915-.332-.915-.818 0-.487.33-.82.915-.82l1.785.002zm-10.163-.112c-.08 1.903-.482 3.131-1.268 3.131h-.196v1.329l.21.01c1.575.089 2.446-1.294 2.59-4.315h2.072v4.271h1.31V1.217H28.67l-.044 1.106zM23.688 1.14c-1.774 0-3.051 1.228-3.051 2.843 0 1.67 1.389 2.855 3.05 2.855 1.732 0 3.076-1.25 3.076-2.855s-1.344-2.844-3.075-2.844zm0 4.37c-1.003 0-1.686-.653-1.686-1.527 0-.896.684-1.532 1.686-1.532 1.002 0 1.708.665 1.708 1.532S24.68 5.51 23.688 5.51zm-4.442-4.283h-4.63l-.045 1.107c-.065 1.594-.481 3.11-1.267 3.132l-.364.01V8l1.323-.003V6.75h4.596v1.247h1.335V5.466h-.948V1.227zm-1.312 4.239h-2.8c.474-.72.728-1.76.772-2.977h2.028v2.977z"/></g><defs><clipPath id="clip0_2002_806"><path fill="#fff" d="M0 0h56v8H0z"/></clipPath></defs></svg>