<svg width="135" height="31" fill="none" xmlns="http://www.w3.org/2000/svg"><mask id="a" style="mask-type:luminance" maskUnits="userSpaceOnUse" x="0" y="0" width="135" height="31"><path d="M135 .667H0v30h135v-30z" fill="#fff"/></mask><g mask="url(#a)" fill="#fff"><path d="M72.608 13.784c-.121 3.158 5.473 3.4 10.095 4.737 3.162.85 6.567 3.765 5.473 7.409-.852 3.036-4.5 4.13-7.176 4.494-3.405.486-6.69.243-9.122-1.215-2.189-1.215-2.918-2.672-2.918-2.672l.364-.364c1.217 1.943 4.5 4.008 8.27 4.008 3.77.121 8.27-1.458 8.27-4.251.123-2.186-2.796-3.523-7.053-4.616-3.04-.728-7.54-1.457-8.757-4.858-.851-2.55.487-5.101 2.676-6.437 1.946-1.093 4.257-1.458 6.567-1.458 2.19-.121 4.5.608 6.081 1.58 1.703 1.092 2.798 2.185 2.798 2.185l-.365.365s-1.095-1.093-2.798-2.065c-1.337-.729-2.918-1.457-4.621-1.457-4.014-.243-7.662 1.093-7.784 4.615zm54.851-8.745h-1.946l2.554-4.372h1.946l-2.554 4.372zM3.162 29.816V8.804H0v21.498h16.905v-.486H3.162zm118.095 0v-9.96h11.797v-.607h-11.797V9.412h13.5v-.607h-16.663v21.498H135v-.486h-13.743zm-10.46-21.012V19.25H97.541V8.804h-3.163v21.498h3.163V19.857h13.256v10.445h.487V8.804h-.487zm-48.527 0v16.761L45.851 8.44v21.862h.487v-15.91l16.419 16.274V8.804h-.487zM36.487 30.302h3.527L29.919 8.44l-9.243 21.862h.608l2.068-4.98h10.702l2.433 4.98zm-12.77-5.465L28.46 13.54l5.472 11.296H23.716z"/></g></svg>