<svg width="50" height="50" fill="none" xmlns="http://www.w3.org/2000/svg"><path d="M14.063 34.896c-.743 0-1.363-.249-1.86-.746-.496-.496-.745-1.116-.745-1.858 0-.722.249-1.336.746-1.843.496-.508 1.116-.762 1.858-.762.722 0 1.336.254 1.843.762a2.51 2.51 0 01.762 1.842c0 .743-.254 1.363-.762 1.86a2.536 2.536 0 01-1.842.745zm0-14.584c-.743 0-1.363-.248-1.86-.745-.496-.497-.745-1.116-.745-1.859 0-.721.249-1.335.746-1.842.496-.508 1.116-.762 1.858-.762a2.51 2.51 0 011.843.762 2.51 2.51 0 01.762 1.842c0 .743-.254 1.362-.762 1.86a2.537 2.537 0 01-1.842.744zm7.291 6.25v-3.125h7.292v3.125h-7.292zM35.012 36.96l-2.556-1.731a19.38 19.38 0 002.18-4.838 18.93 18.93 0 00.76-5.39c0-2.292-.366-4.448-1.1-6.468a19.318 19.318 0 00-3.09-5.52l2.376-1.994a22.335 22.335 0 013.64 6.452c.866 2.376 1.3 4.886 1.3 7.53 0 2.233-.31 4.35-.93 6.35-.62 2-1.48 3.87-2.58 5.609z" fill="#1A2633"/></svg>