<svg width="249" height="35" fill="none" xmlns="http://www.w3.org/2000/svg"><path d="M.064 34.27V1.722h18.053v32.546h-5.074V6.442H5.159V34.27H.064zM31.848.991c-2.965 0-5.294 1.545-6.996 4.636-1.691 3.112-2.537 7.205-2.537 12.258 0 5.221.814 9.398 2.454 12.478C26.387 33.454 28.736 35 31.838 35c3.163 0 5.638-1.618 7.413-4.855 1.692-3.091 2.548-7.194 2.548-12.3 0-5.054-.877-9.126-2.632-12.217C37.413 2.538 34.97.992 31.848.992zm-4.699 16.936c0-3.57.397-6.474 1.201-8.708.773-2.245 1.942-3.373 3.498-3.373 1.723 0 2.965 1.149 3.738 3.415.69 1.994 1.034 4.855 1.034 8.583 0 3.591-.397 6.536-1.201 8.844-.794 2.297-1.984 3.445-3.571 3.445-1.535 0-2.694-1.148-3.498-3.487a27.177 27.177 0 01-1.2-8.719zM57.012 1.723h5.096v32.546h-5.096V18.241h-4.594a7.83 7.83 0 01-5.566-2.13 6.714 6.714 0 01-2.338-5.22v-9.18h5.053v8.542c0 .866.25 1.566.763 2.088.7.689 1.754 1.034 3.153 1.034h3.53V1.723zm18.19 32.546h-5.065V6.536h-4.845V1.733h14.796v4.803H75.2V34.27zm8.812-32.546h8.228c2.433 0 4.343.585 5.743 1.754 1.754 1.462 2.631 3.759 2.631 6.912l2.631 23.88h-5.095l-1.608-16.205h-7.967l-.554 16.205h-5.085l1.065-32.546h.01zm4.657 11.57h7.298c-.24-2.507-.647-4.24-1.221-5.18-.69-1.086-1.838-1.618-3.446-1.618h-2.443l-.188 6.797zm32.859 20.402V1.149h5.743c3.843 0 6.61 1.68 8.312 5.032a16.156 16.156 0 011.639 7.456c0 4.04-.668 7.12-2.015 9.22-1.18 1.795-2.673 2.704-4.49 2.704a5.536 5.536 0 01-3.926-1.713v9.847h-5.263zm5.221-28.109v10.045c0 1.566.24 2.777.731 3.634.459.835 1.044 1.253 1.723 1.253.72 0 1.336-.47 1.858-1.42s.773-2.308.773-4.073c0-3.257-.397-5.659-1.211-7.194-.804-1.524-1.921-2.297-3.352-2.297a4.77 4.77 0 01-.522.052zM149.346.418c-2.965 0-5.293 1.545-6.995 4.636-1.692 3.122-2.538 7.204-2.538 12.258 0 5.231.815 9.397 2.465 12.478 1.608 3.09 3.967 4.636 7.068 4.636 3.154 0 5.618-1.619 7.404-4.856 1.691-3.09 2.547-7.194 2.547-12.3 0-5.053-.877-9.126-2.631-12.216-1.754-3.091-4.198-4.636-7.32-4.636zm-4.698 16.936c0-3.571.407-6.474 1.201-8.708.772-2.245 1.931-3.373 3.497-3.373 1.723 0 2.966 1.149 3.739 3.414.689 1.995 1.033 4.856 1.033 8.583 0 3.592-.397 6.537-1.201 8.844-.804 2.308-1.983 3.456-3.571 3.456-1.534 0-2.693-1.169-3.497-3.497a27.19 27.19 0 01-1.201-8.72zm23.243.177c0 3.446.939 6.265 2.84 8.458 2.036 2.328 4.886 3.498 8.562 3.498v5.21c-5.346 0-9.544-1.64-12.582-4.907-2.903-3.112-4.354-7.184-4.354-12.217 0-5.2 1.336-9.282 4.02-12.248C169.3 2.057 173.581.418 179.209.418v5.22c-3.759 0-6.63 1.149-8.604 3.446-1.816 2.088-2.714 4.908-2.714 8.458v-.01zm19.786 0c0 3.446.94 6.265 2.84 8.458 2.026 2.328 4.887 3.498 8.562 3.498v5.21c-5.346 0-9.543-1.64-12.582-4.907-2.902-3.112-4.354-7.184-4.354-12.217 0-5.2 1.337-9.282 4.01-12.248 2.934-3.268 7.215-4.907 12.843-4.907v5.22c-3.759 0-6.63 1.149-8.604 3.446-1.817 2.088-2.715 4.908-2.715 8.458v-.01zM221.811 0l1.326 33.695h-5.179l-.856-22.105-8.698 8.719.042 13.386h-5.169V1.149h5.169v12.018L221.811 0zm25.091 0l1.326 33.695h-5.179l-.867-22.105-8.687 8.719.042 13.386h-5.169V1.149h5.169v12.018L246.902 0z" fill="#1A34E8"/></svg>