<svg width="17" height="17" fill="none" xmlns="http://www.w3.org/2000/svg"><path d="M7.714 1.716c.489-.991 1.902-.991 2.39 0l1.434 2.903c.194.394.57.667 1.004.73l3.204.465c1.094.16 1.53 1.503.74 2.275l-2.32 2.26a1.333 1.333 0 00-.383 1.18l.547 3.191c.187 1.09-.956 1.92-1.934 1.406L9.53 14.619a1.333 1.333 0 00-1.241 0l-2.866 1.507c-.979.514-2.122-.316-1.935-1.406l.547-3.191a1.333 1.333 0 00-.383-1.18l-2.319-2.26c-.791-.772-.354-2.116.74-2.275l3.204-.465a1.33 1.33 0 001.003-.73l1.434-2.903z" fill="#A2225C"/></svg>