<svg width="25" height="25" fill="none" xmlns="http://www.w3.org/2000/svg"><path fill-rule="evenodd" clip-rule="evenodd" d="M24.213 12.666c0 6.628-5.372 12-12 12-6.627 0-12-5.372-12-12 0-6.627 5.373-12 12-12 6.628 0 12 5.373 12 12zm-11.57-3.14c-1.167.485-3.5 1.49-6.998 3.014-.568.226-.865.447-.892.663-.046.365.411.509 1.034.705l.262.083c.613.2 1.437.432 1.866.441.388.009.822-.151 1.301-.48 3.269-2.207 4.956-3.322 5.062-3.346.074-.017.178-.038.248.024.07.063.063.18.056.212-.045.194-1.84 1.863-2.77 2.726-.29.27-.495.46-.537.504-.094.098-.19.19-.282.28-.569.548-.996.96.024 1.631.49.323.882.59 1.273.857.428.29.854.58 1.405.942.14.092.275.188.405.281.497.355.944.673 1.496.622.32-.03.652-.33.82-1.23.398-2.125 1.179-6.73 1.36-8.628a2.117 2.117 0 00-.02-.472.506.506 0 00-.171-.325c-.144-.117-.366-.141-.465-.14-.452.009-1.144.25-4.477 1.635z" fill="#fff"/></svg>