<svg width="40" height="40" fill="none" xmlns="http://www.w3.org/2000/svg"><path fill-rule="evenodd" clip-rule="evenodd" d="M11.556 8.885h.142c.329 0 .652.002.94.014" fill="#fff"/><path fill-rule="evenodd" clip-rule="evenodd" d="M9.089 36.775l.73.433a19.97 19.97 0 0010.178 2.787h.007c11.022 0 19.992-8.968 19.996-19.99v-.076a19.867 19.867 0 00-5.852-14.061A19.868 19.868 0 0020.011.005C9.284.005.506 8.487.028 19.091a19.934 19.934 0 003.037 11.536l.475.756v.005L1.52 38.76l7.569-1.985zM12.639 8.9c.428.018.902.038 1.352 1.039.308.683.825 1.957 1.237 2.973.305.75.552 1.36.616 1.489.15.3.25.651.05 1.053l-.084.17c-.15.308-.261.534-.516.832-.1.117-.204.244-.308.37a10.13 10.13 0 01-.594.683c-.302.3-.615.625-.264 1.226.35.602 1.557 2.57 3.344 4.163 1.92 1.711 3.587 2.435 4.434 2.803.167.072.302.131.4.18.601.301.952.251 1.303-.15.35-.402 1.502-1.755 1.902-2.356.402-.602.802-.502 1.353-.302.551.2 3.507 1.655 4.108 1.956l.328.16c.42.203.703.34.824.541.15.252.15 1.455-.35 2.858-.501 1.404-2.956 2.758-4.058 2.858l-.06.005-.26.03c-1.018.12-2.304.27-6.893-1.54-5.646-2.226-9.37-7.743-10.14-8.884a6.624 6.624 0 00-.129-.189l-.007-.01c-.325-.434-2.447-3.271-2.447-6.207 0-2.768 1.36-4.22 1.987-4.887l.117-.126c.55-.601 1.202-.752 1.603-.752h.21c.33 0 .653.002.942.014z" fill="#fff"/><path fill-rule="evenodd" clip-rule="evenodd" d="M9.089 36.775l.73.433a19.97 19.97 0 0010.178 2.787h.007c11.022 0 19.992-8.968 19.996-19.99v-.076a19.867 19.867 0 00-5.852-14.061A19.868 19.868 0 0020.011.005C9.284.005.506 8.487.028 19.091a19.934 19.934 0 003.037 11.536l.475.756v.005L1.52 38.76l7.569-1.985zM12.639 8.9c.428.018.902.038 1.352 1.039.308.683.825 1.957 1.237 2.973.305.75.552 1.36.616 1.489.15.3.25.651.05 1.053l-.084.17c-.15.308-.261.534-.516.832-.1.117-.204.244-.308.37a10.13 10.13 0 01-.594.683c-.302.3-.615.625-.264 1.226.35.602 1.557 2.57 3.344 4.163 1.92 1.711 3.587 2.435 4.434 2.803.167.072.302.131.4.18.601.301.952.251 1.303-.15.35-.402 1.502-1.755 1.902-2.356.402-.602.802-.502 1.353-.302.551.2 3.507 1.655 4.108 1.956l.328.16c.42.203.703.34.824.541.15.252.15 1.455-.35 2.858-.501 1.404-2.956 2.758-4.058 2.858l-.06.005-.26.03c-1.018.12-2.304.27-6.893-1.54-5.646-2.226-9.37-7.743-10.14-8.884a6.624 6.624 0 00-.129-.189l-.007-.01c-.325-.434-2.447-3.271-2.447-6.207 0-2.768 1.36-4.22 1.987-4.887l.117-.126c.55-.601 1.202-.752 1.603-.752h.21c.33 0 .653.002.942.014z" fill="url(#paint0_linear_177_1841)"/><path d="M13.991 9.938c-.45-1.001-.924-1.021-1.352-1.039a23.166 23.166 0 00-.941-.014h-.212c-.4 0-1.051.15-1.602.752l-.117.126c-.626.668-1.987 2.119-1.987 4.887 0 2.936 2.122 5.773 2.447 6.208l.007.01c.023.03.066.094.13.188.77 1.14 4.493 6.658 10.139 8.885 4.59 1.81 5.875 1.658 6.893 1.538l.26-.029.06-.005c1.102-.1 3.557-1.454 4.057-2.858.502-1.403.502-2.607.351-2.858-.12-.201-.404-.338-.824-.54l-.328-.161c-.601-.3-3.557-1.755-4.108-1.956-.55-.2-.951-.3-1.352.302-.401.6-1.553 1.954-1.903 2.355-.35.402-.702.452-1.303.152a8.823 8.823 0 00-.4-.18c-.847-.369-2.514-1.093-4.434-2.804-1.787-1.593-2.993-3.56-3.344-4.163-.35-.6-.038-.927.264-1.226.18-.18.387-.431.594-.683.104-.127.207-.253.308-.37.255-.298.365-.524.516-.831l.084-.171c.2-.402.1-.753-.05-1.053-.064-.128-.311-.738-.616-1.489-.412-1.016-.93-2.29-1.237-2.973z" fill="#fff"/><defs><linearGradient id="paint0_linear_177_1841" x1="20.004" y1="39.996" x2="20.004" y2="-.004" gradientUnits="userSpaceOnUse"><stop stop-color="#20B038"/><stop offset="1" stop-color="#60D66A"/></linearGradient></defs></svg>