<svg width="24" height="25" fill="none" xmlns="http://www.w3.org/2000/svg"><path d="M23.992 12.126A11.894 11.894 0 0012.176.666h-.058A11.896 11.896 0 001.671 18.269L.619 24.563a.092.092 0 00.09.104h.019l6.225-1.385a11.902 11.902 0 005.155 1.172h.34a11.892 11.892 0 0011.544-12.328zm-11.603 10.26h-.281a9.835 9.835 0 01-4.532-1.1l-.319-.167-4.222.997.78-4.271-.181-.306a9.833 9.833 0 018.202-14.805h.286A9.83 9.83 0 0112.4 22.39l-.01-.004z" fill="#fff"/><path d="M7.972 6.819a1.099 1.099 0 00-.781.348c-.284.29-1.076.99-1.122 2.46-.046 1.469.98 2.923 1.124 3.126.144.204 1.963 3.378 4.959 4.665 1.761.759 2.533.89 3.034.89.206 0 .362-.023.524-.032.55-.034 1.788-.668 2.058-1.358.27-.69.289-1.294.217-1.414-.07-.12-.266-.208-.56-.362-.295-.155-1.739-.927-2.01-1.035a.92.92 0 00-.32-.083.444.444 0 00-.356.212c-.24.3-.794.953-.98 1.141a.441.441 0 01-.326.152.78.78 0 01-.327-.088 7.615 7.615 0 01-2.35-1.568 9.012 9.012 0 01-1.598-2.124c-.164-.304 0-.461.15-.604.15-.142.31-.338.464-.509a2.05 2.05 0 00.314-.482.55.55 0 00-.009-.524c-.07-.152-.603-1.646-.853-2.246-.202-.512-.444-.53-.655-.545-.173-.012-.372-.018-.571-.024h-.026" fill="#fff"/></svg>