<svg width="160" height="25" fill="none" xmlns="http://www.w3.org/2000/svg"><path opacity=".9" d="M67.702 7.72a8.74 8.74 0 00-4.819 1.436V.826h-3.862v15.351c0 4.66 3.894 8.426 8.65 8.426 4.754 0 8.712-3.734 8.712-8.458 0-4.723-3.83-8.425-8.68-8.425zm-19.979.255c-4.276.415-7.787 4.021-7.787 8.33 0 4.532 3.99 8.361 8.65 8.361 4.659 0 8.648-3.797 8.648-8.361 0-1.947-.702-3.702-1.883-5.107L46.83.858h-4.98l5.872 7.117zm-29.776 9.287l-3.543-8.936h-2.713l-3.51 8.936-3.543-8.936H.426l6.191 15.766H9.33l3.734-9.383 3.734 9.383h2.713l6.16-15.766h-4.182l-3.542 8.936zm68.904-9.51c-4.82 0-8.713 3.638-8.713 8.266 0 4.595 3.415 8.648 8.49 8.648 3.032 0 5.489-1.436 7.244-3.861l-3-2.394c-.861 1.532-2.553 2.426-4.212 2.426-2.17 0-4.309-1.5-4.468-3.702h12.606v-1.15c-.032-4.85-3.32-8.233-7.947-8.233zm49.149 0c-4.819 0-8.681 3.638-8.681 8.457 0 4.532 3.415 8.426 8.458 8.426 3.032 0 5.489-1.437 7.244-3.862l-2.649-2.202c-.925 1.404-2.617 2.234-4.659 2.234-2.011 0-4.213-1.5-4.373-3.702h12.543v-1.309c0-4.66-3.255-8.042-7.883-8.042zm13.468 5.17c0-.99 1.372-1.756 3.16-1.756 1.787 0 3.766.862 5.042 2.266l2.33-2.776c-2.234-1.915-4.468-2.904-7.277-2.904-3.51 0-7.117 1.563-7.117 5.17 0 4.436 3.926 4.755 7.117 5.01 1.788.128 3.383.256 3.383 1.405 0 1.244-1.819 1.819-3.383 1.819a6.934 6.934 0 01-5.297-2.49l-2.49 2.586c1.979 2.361 4.851 3.383 7.66 3.383 3.51 0 7.372-1.628 7.372-5.362 0-4.213-3.957-4.628-6.989-4.915-1.947-.223-3.511-.383-3.511-1.436zM100.606 11.9V8.326h-3.861V24.06h3.861v-6.67c.511-3.702 3.543-5.202 7.054-5.202V8.326h-.383c-2.968 0-5.139 1.053-6.671 3.574zm12.224 0V8.326h-3.862V24.06h3.862v-6.67c.51-4.18 4.213-5.202 7.053-5.202V8.326h-.415c-2.936 0-5.106 1.021-6.638 3.574zM34.128 24.06h3.861V.858h-3.861V24.06zm14.457-3.191c-2.649 0-4.819-2.075-4.819-4.66s2.138-4.691 4.787-4.691c2.617 0 4.851 2.074 4.851 4.691s-2.138 4.66-4.819 4.66zm19.117 0c-2.617 0-4.819-2.043-4.819-4.692s2.074-4.66 4.82-4.66c2.744 0 4.85 2.075 4.85 4.66s-2.202 4.692-4.85 4.692zM27.457 24.06h3.862V8.326h-3.862V24.06zm94.054 0h3.861V8.326h-3.861V24.06zM29.341.667a2.88 2.88 0 00-2.873 2.872c0 1.627 1.372 2.745 2.872 2.745 1.66 0 2.937-1.373 2.937-2.809 0-1.468-1.34-2.808-2.937-2.808zm94.085 0c-1.564 0-2.905 1.276-2.905 2.872 0 1.596 1.277 2.745 2.968 2.745 1.692 0 2.841-1.117 2.841-2.681S125.021.667 123.426.667zm8.361 13.308c.639-1.564 2.011-2.457 4.022-2.457 2.01 0 3.255.957 3.765 2.457h-7.787zm-49.18 0c.638-1.564 2.01-2.457 3.989-2.457 2.01 0 3.319.957 3.83 2.457h-7.82z" fill="#fff"/></svg>