<svg width="85" height="21" fill="none" xmlns="http://www.w3.org/2000/svg"><path d="M8.263 4.808H7.09c-2.13 0-3.251 1.079-3.251 2.676 0 1.812.775 2.651 2.374 3.73l1.311.885-3.793 5.665H.91l3.4-5.069c-1.963-1.4-3.06-2.756-3.06-5.067 0-2.892 2.005-4.846 5.814-4.846h3.792v14.983H8.254V4.808h.009zm13.315 2.115v10.842h-2.561v-4.524h-3.428v4.524h-2.561V6.923h2.561v4.291h3.428V6.923h2.56zm11.574 13.315H30.78v-2.482h-5.757v2.482H22.65v-4.503h.803c.901-1.812 1.08-5.238 1.08-7.888v-.928h7.478v8.816h1.142v4.503zm-3.704-11.29h-2.712v.322c0 1.873-.196 4.827-.911 6.47h3.623V8.948zm9.46 9.022c-3.275 0-5.131-1.829-5.131-5.604 0-3.275 1.49-5.665 4.614-5.665 2.562 0 4.221 1.427 4.221 5.193v1.356h-6.184c.106 1.812.82 2.696 2.695 2.696 1.25 0 2.587-.473 3.381-1.017v2.096c-.749.518-1.954.945-3.596.945zm-2.48-6.613h3.578v-.213c0-1.356-.39-2.409-1.66-2.409-1.223-.01-1.847.9-1.918 2.622zm10.476 1.08v5.328h-2.57V6.923h2.57v4.997l3.628-4.997h2.589l-3.623 4.997 4.113 5.836h-2.914l-3.793-5.318zm6.56-.088c0-3.303 1.704-5.65 4.982-5.65 1.27 0 2.222.215 2.757.517v2.179c-.518-.322-1.49-.67-2.481-.67-1.678 0-2.606 1.205-2.606 3.561 0 2.24.759 3.667 2.589 3.667 1.079 0 1.855-.276 2.498-.731v2.088c-.625.455-1.465.67-2.651.67-3.429-.01-5.09-2.008-5.09-5.631h.002z" fill="#000"/><path fill-rule="evenodd" clip-rule="evenodd" d="M76.703.293a8.002 8.002 0 00-5.658 13.655c1.449 1.449 4.858 3.545 5.06 5.747.03.329.27.598.599.598.329 0 .568-.27.598-.598.202-2.202 3.609-4.295 5.057-5.743A8.002 8.002 0 0076.703.292z" fill="#F43"/><path fill-rule="evenodd" clip-rule="evenodd" d="M76.703 11.1a2.808 2.808 0 10-.001-5.615 2.808 2.808 0 00.001 5.615z" fill="#000" fill-opacity=".251"/></svg>